{
  "asset": {
    "version": "2.0",
    "generator": "Bloom temporal-reactive transmission qualification fixture"
  },
  "extensionsUsed": [
    "KHR_materials_ior",
    "KHR_materials_transmission",
    "KHR_materials_volume"
  ],
  "scene": 0,
  "scenes": [
    {
      "nodes": [0]
    }
  ],
  "nodes": [
    {
      "mesh": 0
    }
  ],
  "materials": [
    {
      "name": "Physical transmission qualification layer",
      "pbrMetallicRoughness": {
        "baseColorFactor": [0.82, 0.92, 1.0, 1.0],
        "metallicFactor": 0.0,
        "roughnessFactor": 0.12
      },
      "extensions": {
        "KHR_materials_ior": {
          "ior": 1.5
        },
        "KHR_materials_transmission": {
          "transmissionFactor": 0.86
        },
        "KHR_materials_volume": {
          "thicknessFactor": 0.08,
          "attenuationDistance": 3.0,
          "attenuationColor": [0.78, 0.9, 1.0]
        }
      },
      "doubleSided": true
    }
  ],
  "meshes": [
    {
      "name": "Quad",
      "primitives": [
        {
          "attributes": {
            "POSITION": 0,
            "NORMAL": 1
          },
          "indices": 2,
          "material": 0,
          "mode": 4
        }
      ]
    }
  ],
  "buffers": [
    {
      "byteLength": 108,
      "uri": "data:application/octet-stream;base64,"
    }
  ],
  "bufferViews": [
    {
      "buffer": 0,
      "byteOffset": 0,
      "byteLength": 48,
      "target": 34962
    },
    {
      "buffer": 0,
      "byteOffset": 48,
      "byteLength": 48,
      "target": 34962
    },
    {
      "buffer": 0,
      "byteOffset": 96,
      "byteLength": 12,
      "target": 34963
    }
  ],
  "accessors": [
    {
      "bufferView": 0,
      "componentType": 5126,
      "count": 4,
      "type": "VEC3",
      "min": [-1.0, -1.0, 0.0],
      "max": [1.0, 1.0, 0.0]
    },
    {
      "bufferView": 1,
      "componentType": 5126,
      "count": 4,
      "type": "VEC3"
    },
    {
      "bufferView": 2,
      "componentType": 5123,
      "count": 6,
      "type": "SCALAR"
    }
  ]
}
